<?xml version="1.0" standalone="no"?>
<!DOCTYPE svg PUBLIC "-//W3C//DTD SVG 20010904//EN"
 "http://www.w3.org/TR/2001/REC-SVG-20010904/DTD/svg10.dtd">
<svg version="1.0" xmlns="http://www.w3.org/2000/svg"
 width="700.000000pt" height="700.000000pt" viewBox="0 0 700.000000 700.000000"
 preserveAspectRatio="xMidYMid meet">
<metadata>
Created by potrace 1.11, written by Peter Selinger 2001-2013
</metadata>
<g transform="translate(0.000000,700.000000) scale(0.100000,-0.100000)"
fill="#000000" stroke="none">
<path d="M3278 6995 c-2 -1 -41 -5 -88 -9 -87 -7 -105 -9 -225 -27 -116 -18
-123 -19 -192 -35 -184 -42 -248 -59 -369 -99 -460 -153 -877 -394 -1228 -709
l-80 -71 -140 -1 c-78 0 -155 -4 -173 -8 -31 -7 -92 -64 -94 -89 -1 -7 -3 -94
-4 -195 -2 -168 -4 -184 -23 -205 -25 -27 -156 -229 -206 -317 -58 -103 -162
-320 -205 -428 -68 -169 -143 -410 -166 -533 -3 -13 -11 -58 -20 -99 -29 -147
-36 -200 -52 -370 -15 -165 -8 -592 12 -711 2 -13 6 -46 9 -74 10 -80 15 -113
51 -286 16 -76 93 -342 114 -394 4 -11 27 -69 51 -129 218 -557 613 -1088
1085 -1457 67 -52 218 -160 260 -186 235 -143 426 -241 619 -317 101 -41 162
-61 341 -116 43 -13 185 -48 219 -54 16 -3 52 -10 80 -15 28 -6 65 -12 81 -15
32 -5 104 -15 145 -22 211 -32 709 -24 940 16 30 5 73 12 95 15 172 25 523
127 710 206 17 7 32 13 35 14 64 21 301 142 410 207 58 35 116 71 129 78 100
60 284 200 421 319 135 120 344 342 440 470 14 18 34 45 46 59 19 24 151 219
181 268 80 129 204 379 268 539 58 146 138 403 161 518 19 95 54 303 59 352 4
33 9 71 11 85 9 47 11 525 4 605 -13 130 -21 202 -25 227 -3 13 -8 43 -11 68
-9 67 -70 335 -94 412 -11 37 -21 70 -21 73 0 11 -74 208 -116 310 -96 230
-272 539 -397 700 l-31 39 -5 176 c-6 196 -11 214 -78 246 -28 13 -66 17 -174
18 l-137 1 -38 36 c-21 20 -51 48 -68 62 -16 14 -55 46 -85 72 -50 42 -289
216 -331 240 -235 137 -500 275 -527 275 -4 0 -26 8 -48 19 -96 46 -391 136
-562 172 -54 11 -106 22 -117 25 -11 2 -38 6 -60 9 -22 3 -51 7 -65 10 -13 2
-52 7 -86 11 -33 3 -74 8 -90 10 -32 5 -540 14 -546 9z"/>
</g>
</svg>
