<?xml version="1.0" encoding="iso-8859-1"?>
<!-- Generator: Adobe Illustrator 19.0.0, SVG Export Plug-In . SVG Version: 6.00 Build 0)  -->
<svg version="1.1" id="Capa_1" xmlns="http://www.w3.org/2000/svg" xmlns:xlink="http://www.w3.org/1999/xlink" x="0px" y="0px"
	 viewBox="0 0 512 512" style="enable-background:new 0 0 512 512;" xml:space="preserve">
<path style="fill:#FFE13C;" d="M433.967,440C387.9,484.565,325.158,512,256,512s-131.9-27.435-177.967-72H433.967z M458.716,412.333
	C492.116,369.087,512,314.87,512,256C512,114.615,397.385,0,256,0S0,114.615,0,256c0,58.87,19.884,113.087,53.284,156.333H458.716z"
	/>
<path style="fill:#F2C230;" d="M434.818,439.155c-11.728,11.456-24.549,21.798-38.3,30.845H115.482
	c-13.754-9.05-26.582-19.388-38.315-30.845c-3.42-3.339-1.014-9.155,3.766-9.155h350.119
	C435.831,430,438.237,435.815,434.818,439.155z"/>
<path style="fill:#B9DCFF;" d="M450,150H60c-5.523,0-10-4.477-10-10V80c0-5.523,4.477-10,10-10h390c5.523,0,10,4.477,10,10v60
	C460,145.523,455.523,150,450,150z"/>
<path style="fill:#E1FFFA;" d="M460,410.658c-7.925,10.437-16.631,20.246-26.033,29.342H78.033
	C67.834,430.133,58.452,419.428,50,407.992V120h410V410.658z"/>
<path style="fill:#C8FFFA;" d="M80,440h-1.967C67.834,430.133,58.452,419.428,50,407.992V120h30V440z"/>
<path style="fill:#91B9FF;" d="M90,95.003c0,5.523-4.477,10-10,10s-10-4.477-10-10c0-5.522,4.477-10,10-10S90,89.48,90,95.003z
	 M110,85.003c-5.523,0-10,4.478-10,10c0,5.523,4.477,10,10,10s10-4.477,10-10C120,89.48,115.523,85.003,110,85.003z M140,85.003
	c-5.523,0-10,4.478-10,10c0,5.523,4.477,10,10,10s10-4.477,10-10C150,89.48,145.523,85.003,140,85.003z"/>
<path style="fill:#FF4B6E;" d="M420,310H90c-5.523,0-10-4.477-10-10V200c0-5.523,4.477-10,10-10h330c5.523,0,10,4.477,10,10v100
	C430,305.523,425.523,310,420,310z"/>
<path style="fill:#DC325F;" d="M110,190v120H90c-5.523,0-10-4.477-10-10V200c0-5.523,4.477-10,10-10H110z"/>
<path style="fill:#64D2CD;" d="M170,400H90c-5.523,0-10-4.477-10-10v-40c0-5.523,4.477-10,10-10h80c5.523,0,10,4.477,10,10v40
	C180,395.523,175.523,400,170,400z"/>
<path style="fill:#FFE1C3;" d="M222.552,282.171v-64.342c0-4.52,4.808-7.417,8.804-5.305l60.862,32.171
	c4.261,2.253,4.261,8.356,0,10.609l-60.862,32.171C227.361,289.588,222.552,286.691,222.552,282.171z"/>
<path style="fill:#FF82A0;" d="M110,155c0,8.284-6.716,15-15,15s-15-6.716-15-15s6.716-15,15-15S110,146.716,110,155z"/>
<path style="fill:#9BF5F0;" d="M215,165h-80c-2.761,0-5-2.239-5-5v-10c0-2.761,2.239-5,5-5h80c2.761,0,5,2.239,5,5v10
	C220,162.761,217.761,165,215,165z M425,340H205c-2.761,0-5,2.239-5,5v10c0,2.762,2.239,5,5,5h220c2.761,0,5-2.238,5-5v-10
	C430,342.238,427.761,340,425,340z M425,380H205c-2.761,0-5,2.239-5,5v10c0,2.762,2.239,5,5,5h220c2.761,0,5-2.238,5-5v-10
	C430,382.238,427.761,380,425,380z"/>
<g>
</g>
<g>
</g>
<g>
</g>
<g>
</g>
<g>
</g>
<g>
</g>
<g>
</g>
<g>
</g>
<g>
</g>
<g>
</g>
<g>
</g>
<g>
</g>
<g>
</g>
<g>
</g>
<g>
</g>
</svg>
