<?xml version="1.0" encoding="iso-8859-1"?>
<!-- Generator: Adobe Illustrator 19.0.0, SVG Export Plug-In . SVG Version: 6.00 Build 0)  -->
<svg version="1.1" id="Capa_1" xmlns="http://www.w3.org/2000/svg" xmlns:xlink="http://www.w3.org/1999/xlink" x="0px" y="0px"
	 viewBox="0 0 512 512" style="enable-background:new 0 0 512 512;" xml:space="preserve">
<path style="fill:#4E7693;" d="M512,67.549v376.902c0,3.414-2.767,6.181-6.181,6.181H6.181c-3.414,0-6.181-2.767-6.181-6.181V67.549
	c0-3.414,2.767-6.181,6.181-6.181h499.638C509.233,61.368,512,64.135,512,67.549z"/>
<path style="fill:#385F82;" d="M512,360.429v84.022c0,3.414-2.767,6.181-6.181,6.181H6.181c-3.414,0-6.181-2.767-6.181-6.181
	v-84.022H512z"/>
<path style="fill:#E3E3E3;" d="M505.819,450.631H6.181c-3.414,0-6.181-2.767-6.181-6.181v-71.658h512v71.658
	C512,447.863,509.233,450.631,505.819,450.631z"/>
<path style="fill:#385F82;" d="M512,67.549v80.282H0V67.549c0-3.414,2.767-6.181,6.181-6.181h499.638
	C509.233,61.368,512,64.135,512,67.549z"/>
<path style="fill:#FC4747;" d="M512,135.464H0V67.55c0-3.414,2.767-6.181,6.181-6.181h499.638c3.414,0,6.181,2.767,6.181,6.181
	V135.464z"/>
<path style="fill:#BF0000;" d="M45.205,106.143h-0.11c-4.268,0-7.726-3.459-7.726-7.726s3.459-7.726,7.726-7.726h0.11
	c4.268,0,7.726,3.459,7.726,7.726C52.932,102.684,49.473,106.143,45.205,106.143z"/>
<path style="fill:#FFDA2C;" d="M73.867,106.143h-0.11c-4.268,0-7.726-3.459-7.726-7.726s3.459-7.726,7.726-7.726h0.11
	c4.268,0,7.726,3.459,7.726,7.726C81.594,102.684,78.135,106.143,73.867,106.143z"/>
<path style="fill:#00D8E0;" d="M102.529,106.143h-0.11c-4.268,0-7.726-3.459-7.726-7.726s3.459-7.726,7.726-7.726h0.11
	c4.268,0,7.726,3.459,7.726,7.726C110.256,102.684,106.797,106.143,102.529,106.143z"/>
<g>
	<path style="fill:#BF0000;" d="M470.98,106.143h-86.128c-4.268,0-7.726-3.459-7.726-7.726s3.459-7.726,7.726-7.726h86.128
		c4.268,0,7.726,3.459,7.726,7.726C478.706,102.684,475.247,106.143,470.98,106.143z"/>
	<path style="fill:#BF0000;" d="M357.196,106.143h-18.964c-4.268,0-7.726-3.459-7.726-7.726s3.459-7.726,7.726-7.726h18.964
		c4.268,0,7.726,3.459,7.726,7.726C364.923,102.684,361.464,106.143,357.196,106.143z"/>
</g>
<path style="fill:#E20F0A;" d="M314.922,322.774H197.078c-22.358,0-40.482-18.125-40.482-40.482v-60.477
	c0-22.358,18.125-40.482,40.482-40.482h117.844c22.358,0,40.482,18.125,40.482,40.482v60.477
	C355.404,304.649,337.28,322.774,314.922,322.774z"/>
<path style="fill:#FC4747;" d="M355.402,221.816v17.173c0-22.365-18.121-40.486-40.476-40.486H197.074
	c-22.355,0-40.476,18.121-40.476,40.486v-17.173c0-22.355,18.121-40.486,40.476-40.486h117.853
	C337.281,181.33,355.402,199.461,355.402,221.816z"/>
<path style="fill:#E3E3E3;" d="M231.137,232.372v39.362c0,4.926,5.161,8.147,9.586,5.985l40.266-19.681
	c4.981-2.435,4.981-9.534,0-11.969l-40.266-19.681C236.298,224.225,231.137,227.446,231.137,232.372z"/>
<g>
	<path style="fill:#4E7693;" d="M247.759,417.378H57.175c-4.268,0-7.726-3.459-7.726-7.726s3.459-7.726,7.726-7.726h190.583
		c4.268,0,7.726,3.459,7.726,7.726C255.485,413.919,252.026,417.378,247.759,417.378z"/>
	<path style="fill:#4E7693;" d="M458.946,416.786h-40.177c-4.268,0-7.726-3.459-7.726-7.726s3.459-7.726,7.726-7.726h40.177
		c4.268,0,7.726,3.459,7.726,7.726S463.213,416.786,458.946,416.786z"/>
</g>
<g>
</g>
<g>
</g>
<g>
</g>
<g>
</g>
<g>
</g>
<g>
</g>
<g>
</g>
<g>
</g>
<g>
</g>
<g>
</g>
<g>
</g>
<g>
</g>
<g>
</g>
<g>
</g>
<g>
</g>
</svg>
